<svg xmlns="http://www.w3.org/2000/svg" viewBox="0 0 46 46"><defs><style>.cls-1{fill:#e67962;}.cls-2{fill:#fff;}</style></defs><title>TecDoc</title><g id="Capa_2" data-name="Capa 2"><g id="Capa_1-2" data-name="Capa 1"><circle class="cls-1" cx="23" cy="23" r="23"/><path class="cls-2" d="M20.33,15.84a1.38,1.38,0,0,0-2.35-1L10.82,22a1.39,1.39,0,0,0,0,2L18,31.14a1.35,1.35,0,0,0,1,.4,1.37,1.37,0,0,0,1.38-1.38,1.35,1.35,0,0,0-.4-1L13.74,23l6.19-6.18A1.38,1.38,0,0,0,20.33,15.84Z"/><path class="cls-2" d="M35.18,22,28,14.86a1.38,1.38,0,0,0-1.95,2L32.26,23l-6.19,6.19a1.35,1.35,0,0,0-.4,1,1.37,1.37,0,0,0,1.38,1.38,1.35,1.35,0,0,0,1-.4L35.18,24A1.39,1.39,0,0,0,35.18,22Z"/></g></g></svg>